<svg width="9" height="9" viewBox="0 0 9 9" fill="none" xmlns="http://www.w3.org/2000/svg">
<path d="M7.53516 3.05574H5.64215V1.21484C5.64215 0.544189 5.08315 -0.000109673 4.39215 -0.000109673C3.70315 -0.000109673 3.14215 0.544189 3.14215 1.21484V3.05574H1.24916C0.560157 3.05574 -0.000843048 3.60004 -0.000843048 4.2707C-0.000843048 4.94135 0.560157 5.48565 1.24916 5.48565H3.14215V7.32557C3.14215 7.99623 3.70315 8.54053 4.39215 8.54053C5.08315 8.54053 5.64215 7.99623 5.64215 7.32557V5.48565H7.53516C8.22616 5.48565 8.78516 4.94135 8.78516 4.2707C8.78516 3.60004 8.22616 3.05574 7.53516 3.05574Z" fill="#7FBD32"/>
</svg>
